<?xml version="1.0" encoding="utf-8"?>
<!-- Generator: Adobe Illustrator 15.1.0, SVG Export Plug-In . SVG Version: 6.00 Build 0)  -->
<!DOCTYPE svg PUBLIC "-//W3C//DTD SVG 1.1//EN" "http://www.w3.org/Graphics/SVG/1.1/DTD/svg11.dtd">
<svg version="1.1" id="Ebene_1" xmlns="http://www.w3.org/2000/svg" xmlns:xlink="http://www.w3.org/1999/xlink" x="0px" y="0px"
	 width="311.81px" height="107.72px" viewBox="0 0 311.81 107.72" enable-background="new 0 0 311.81 107.72" xml:space="preserve">
<g>
	<defs>
		<rect id="SVGID_1_" x="0.919" y="0.181" width="309.971" height="106.819"/>
	</defs>
	<clipPath id="SVGID_2_">
		<use xlink:href="#SVGID_1_"  overflow="visible"/>
	</clipPath>
	<path clip-path="url(#SVGID_2_)" fill="#9D9D9C" d="M303.23,101.93c0.055-0.243,0.189-0.647,0.486-0.647
		c0.646,0,1.186,0.971,2.994,0.971c2.857,0,4.18-2.319,4.18-3.991c0-4.963-6.689-3.506-6.689-6.743c0-1.158,0.783-1.941,1.971-1.941
		c1.859,0,2.588,2.212,2.885,3.722h0.863v-4.261h-0.863c-0.107,0.188-0.162,0.486-0.432,0.486c-0.484,0-1.078-0.811-2.562-0.811
		c-2.373,0-3.586,1.969-3.586,3.642c0,4.746,6.473,3.21,6.473,6.688c0,1.537-1.025,2.346-2.375,2.346
		c-2.184,0-3.072-2.615-3.344-4.314h-0.863v4.854H303.23z M298.996,101.93v-0.862c-1.832-0.055-2.264-0.54-2.264-1.35v-3.83
		c0-2.346,0.836-6.284,2.67-6.311c0.295,0,0.566,0.107,0.701,0.324c-0.783,0-1.16,0.674-1.16,1.321c0,1.213,0.619,1.592,1.213,1.592
		c0.701,0,1.268-0.594,1.268-1.754c0-1.51-0.971-2.347-1.969-2.347c-1.617,0-2.588,1.888-2.939,3.291h-0.053v-3.129l-3.723,0.162
		v0.863c1.35,0.054,1.672,0.646,1.672,2.48v7.336c0,0.81-0.432,1.295-1.564,1.35v0.862H298.996z M284.354,94.378
		c0-3.452,1.025-4.801,2.562-4.801c1.428,0,2.236,1.349,2.236,4.801H284.354z M291.797,95.403c0-3.885-1.887-6.689-4.881-6.689
		c-3.049,0-5.205,2.805-5.205,6.771c0,3.371,2.211,6.769,5.555,6.769c3.021,0,4.342-2.346,4.584-4.746l-0.863-0.162
		c-0.268,1.834-1.104,3.884-3.451,3.884c-1.807,0-3.182-2.05-3.182-5.825H291.797z M276.209,84.076
		c-0.162,3.452-1.188,4.369-3.129,5.178v0.81h1.672v8.899c0,2.158,1.08,3.29,2.859,3.29c2.021,0,3.02-1.213,3.02-3.937v-1.269
		h-0.863v0.755c0,2.859-0.674,3.426-1.562,3.426c-0.729,0-1.135-0.485-1.135-1.673v-9.492h3.238v-1.025h-3.238v-4.962H276.209z
		 M267.848,84.076c-0.162,3.452-1.186,4.369-3.129,5.178v0.81h1.674v8.899c0,2.158,1.078,3.29,2.857,3.29
		c2.023,0,3.021-1.213,3.021-3.937v-1.269h-0.863v0.755c0,2.859-0.674,3.426-1.564,3.426c-0.727,0-1.133-0.485-1.133-1.673v-9.492
		h3.236v-1.025h-3.236v-4.962H267.848z M260.379,96.563c0,3.047-1.242,4.665-2.617,4.665c-0.836,0-1.484-0.701-1.484-2.131
		c0-2.293,1.943-3.316,4.102-4.072V96.563z M264.047,98.208c-0.055,1.942-0.271,2.535-0.783,2.535c-0.377,0-0.566-0.352-0.566-1.133
		v-7.497c0-2.023-1.16-3.399-4.18-3.399c-2.348,0-4.074,1.457-4.074,3.291c0,1.079,0.541,1.618,1.297,1.618
		c0.754,0,1.348-0.593,1.348-1.564c0-0.781-0.27-1.43-1.133-1.511c0.566-0.674,1.348-0.971,2.293-0.971
		c1.428,0,2.131,0.675,2.131,2.212v2.212c-2.32,0.863-6.582,2.13-6.582,5.205c0,1.78,1.215,3.047,3.291,3.047
		c1.887,0,2.697-0.89,3.344-2.103h0.055c0.16,1.456,0.891,2.103,2.184,2.103c1.672,0,2.24-1.213,2.24-4.045H264.047z
		 M240.178,101.93v-0.862c-1.295-0.055-1.725-0.54-1.725-1.35v-5.879c0-1.861,0.941-3.884,2.533-3.884
		c0.973,0,1.457,0.755,1.457,2.373v9.602h3.885v-0.862c-1.188-0.055-1.564-0.433-1.564-1.35v-6.365c0-1.888,1.105-3.397,2.48-3.397
		c0.943,0,1.51,0.539,1.51,2.158v9.816h3.938v-0.862c-1.24-0.055-1.617-0.433-1.617-1.35v-7.146c0-2.751-1.268-3.857-3.209-3.857
		c-1.727,0-2.725,1.079-3.371,2.482c-0.459-1.457-1.404-2.482-2.994-2.482c-1.564,0-2.59,0.998-3.156,2.374h-0.053v-2.212
		l-3.939,0.162v0.863c1.457,0.054,1.781,0.242,1.781,1.402v8.414c0,0.81-0.432,1.295-1.727,1.35v0.862H240.178z M216.984,89.901
		c0.863,0.054,1.322,0.297,1.51,0.862l3.965,11.328c-0.729,3.209-1.727,4.045-2.75,4.045c-0.566,0-0.836-0.27-0.998-0.755
		c0.107,0.027,0.215,0.027,0.297,0.027c0.539,0,0.998-0.54,0.998-1.376c0-0.782-0.486-1.537-1.188-1.537
		c-0.756,0-1.295,0.565-1.295,1.78c0,1.698,0.971,2.724,2.186,2.724c0.971,0,2.266-0.485,3.047-2.967l4.18-13.08
		c0.217-0.701,0.566-0.944,1.537-1.052v-0.863h-4.207v0.863c1.08,0.054,1.51,0.162,1.51,0.781c0,0.836-0.322,1.322-2.211,7.769
		h-0.053c-2.373-6.878-2.59-7.498-2.59-7.876c0-0.351,0.189-0.674,1.457-0.674v-0.863h-5.395V89.901z M215.852,97.345
		c-0.297,1.889-0.998,3.884-3.182,3.884c-1.564,0-2.967-1.295-2.967-5.825c0-3.83,1.348-5.826,3.344-5.826
		c0.998,0,1.861,0.486,2.266,1.457l-0.055,0.054c-0.107-0.027-0.215-0.107-0.404-0.107c-0.701,0-1.105,0.458-1.105,1.617
		c0,0.972,0.512,1.618,1.268,1.618c0.971,0,1.375-0.701,1.375-1.995c0-2.077-1.455-3.507-3.748-3.507
		c-3.236,0-5.584,3.399-5.584,6.771c0,3.964,2.537,6.769,5.26,6.769c2.967,0,4.154-2.265,4.396-4.8L215.852,97.345z M199.535,101.93
		v-0.862c-1.295-0.055-1.727-0.54-1.727-1.35v-5.231c0-2.644,1.457-4.531,2.885-4.531c0.918,0,1.594,0.593,1.594,2.373v9.602h3.99
		v-0.862c-1.295-0.055-1.672-0.433-1.672-1.35v-7.174c0-2.373-1.053-3.83-3.291-3.83c-1.834,0-2.885,1.241-3.613,2.751h-0.055
		v-2.589l-3.938,0.162v0.863c1.457,0.054,1.781,0.242,1.781,1.402v8.414c0,0.81-0.432,1.295-1.727,1.35v0.862H199.535z
		 M185.322,94.378c0-3.452,1.025-4.801,2.562-4.801c1.43,0,2.238,1.349,2.238,4.801H185.322z M192.766,95.403
		c0-3.885-1.887-6.689-4.881-6.689c-3.047,0-5.205,2.805-5.205,6.771c0,3.371,2.211,6.769,5.555,6.769
		c3.021,0,4.344-2.346,4.586-4.746l-0.863-0.162c-0.27,1.834-1.105,3.884-3.453,3.884c-1.805,0-3.182-2.05-3.182-5.825H192.766z
		 M178.715,83.105c-0.809,0-1.375,0.7-1.375,1.726s0.566,1.726,1.375,1.726s1.375-0.7,1.375-1.726S179.523,83.105,178.715,83.105
		 M181.816,101.93v-0.862c-1.295-0.055-1.727-0.54-1.727-1.35V88.714l-4.045,0.162v0.863c1.402,0.054,1.727,0.243,1.727,1.402v8.576
		c0,0.81-0.432,1.295-1.727,1.35v0.862H181.816z M174.211,97.345c-0.297,1.889-0.998,3.884-3.184,3.884
		c-1.562,0-2.965-1.295-2.965-5.825c0-3.83,1.348-5.826,3.344-5.826c0.998,0,1.861,0.486,2.266,1.457l-0.053,0.054
		c-0.109-0.027-0.217-0.107-0.406-0.107c-0.701,0-1.105,0.458-1.105,1.617c0,0.972,0.514,1.618,1.268,1.618
		c0.971,0,1.375-0.701,1.375-1.995c0-2.077-1.455-3.507-3.748-3.507c-3.236,0-5.582,3.399-5.582,6.771
		c0,3.964,2.535,6.769,5.258,6.769c2.967,0,4.154-2.265,4.396-4.8L174.211,97.345z M151.88,90.063h2.158v9.654
		c0,0.81-0.432,1.295-1.78,1.35v0.862h5.988v-0.862c-1.458-0.055-1.889-0.54-1.889-1.35v-9.654h3.668
		c0.701,0,1.025,0.323,1.025,0.862v8.792c0,0.81-0.432,1.295-1.672,1.35v0.862h5.662v-0.862c-1.24-0.055-1.672-0.54-1.672-1.35
		V88.876c-1.025,0.108-2.697,0.162-3.938,0.162h-3.075V87.15c0-2.266,1.106-3.345,3.155-3.345c1.053,0,1.592,0.378,1.754,0.675
		c-0.512,0.161-0.809,0.7-0.809,1.402c0,0.891,0.594,1.349,1.186,1.349c0.648,0,1.295-0.378,1.295-1.592
		c0-1.726-1.592-2.696-3.83-2.696c-2.859,0-5.069,1.672-5.069,4.692v1.402h-2.158V90.063z M150.774,101.93v-0.862
		c-1.888-0.055-2.319-0.352-2.319-1.808v-9.196h2.535v-1.025h-2.535v-2.724c0-1.889,0.728-2.509,1.672-2.509
		c0.404,0,0.809,0.108,1.079,0.432c-0.675,0.216-0.917,0.702-0.917,1.321c0,0.972,0.485,1.43,1.186,1.43
		c0.648,0,1.295-0.377,1.295-1.591c0-1.564-1.295-2.454-2.751-2.454c-2.319,0-3.884,1.672-3.884,4.692v1.402h-2.157v1.025h2.157
		v9.654c0,0.81-0.431,1.295-2.103,1.35v0.862H150.774z M135.806,94.378c0-3.452,1.025-4.801,2.562-4.801
		c1.43,0,2.239,1.349,2.239,4.801H135.806z M143.25,95.403c0-3.885-1.888-6.689-4.882-6.689c-3.047,0-5.205,2.805-5.205,6.771
		c0,3.371,2.212,6.769,5.556,6.769c3.021,0,4.342-2.346,4.585-4.746l-0.863-0.162c-0.27,1.834-1.106,3.884-3.452,3.884
		c-1.807,0-3.183-2.05-3.183-5.825H143.25z"/>
	<path clip-path="url(#SVGID_2_)" fill="#706F6F" d="M304.123,74.417v-2.355c-5.008-0.147-6.186-1.474-6.186-3.683V57.923
		c0-6.405,2.283-17.155,7.291-17.229c0.809,0,1.545,0.295,1.914,0.884c-2.135,0-3.166,1.841-3.166,3.608
		c0,3.312,1.693,4.344,3.312,4.344c1.914,0,3.461-1.62,3.461-4.786c0-4.123-2.65-6.406-5.375-6.406
		c-4.418,0-7.068,5.154-8.025,8.983h-0.146v-8.541l-10.162,0.442v2.355c3.682,0.147,4.564,1.767,4.564,6.774v20.027
		c0,2.209-1.178,3.535-4.27,3.683v2.355H304.123z M263.773,53.8c0-9.425,2.799-13.106,6.996-13.106
		c3.902,0,6.111,3.682,6.111,13.106H263.773z M284.096,56.599c0-10.604-5.154-18.262-13.326-18.262
		c-8.32,0-14.211,7.658-14.211,18.482c0,9.204,6.037,18.481,15.168,18.481c8.246,0,11.855-6.405,12.518-12.96l-2.357-0.44
		c-0.736,5.007-3.018,10.603-9.424,10.603c-4.934,0-8.689-5.596-8.689-15.904H284.096z M254.865,74.417v-2.355
		c-3.533-0.147-4.713-1.474-4.713-3.683V23.316l-11.191,0.441v2.356c3.607,0.147,4.859,1.473,4.859,3.976v38.289
		c0,2.209-1.178,3.535-4.713,3.683v2.355H254.865z M235.797,74.417v-2.355c-3.535-0.147-4.713-1.474-4.713-3.683V23.316
		l-11.193,0.441v2.356c3.609,0.147,4.861,1.473,4.861,3.976v38.289c0,2.209-1.178,3.535-4.713,3.683v2.355H235.797z M216.58,71.619
		c-3.168-0.146-4.418-0.81-4.418-3.682V38.779l-10.973,0.442v2.355c3.756,0.147,4.639,0.663,4.639,3.829v14.579
		c0,6.112-3.459,11.929-7.656,11.929c-2.43,0-4.199-1.326-4.199-5.744V38.779l-10.455,0.442v2.355
		c3.24,0.147,4.123,0.663,4.123,3.829v19.438c0,7.289,3.02,10.456,9.205,10.456c5.154,0,7.805-3.167,9.646-7.511h0.146v6.627
		l9.941-0.441V71.619z M202.588,30.975c0,1.841,1.326,3.387,3.389,3.387c2.061,0,3.387-1.546,3.387-3.387
		c0-1.842-1.326-3.388-3.387-3.388C203.914,27.587,202.588,29.133,202.588,30.975 M189.924,30.975c0,1.841,1.326,3.387,3.387,3.387
		c2.062,0,3.389-1.546,3.389-3.387c0-1.842-1.326-3.388-3.389-3.388C191.25,27.587,189.924,29.133,189.924,30.975 M149.059,74.417
		v-2.355c-3.534-0.147-4.712-1.474-4.712-3.683V52.327c0-5.08,2.577-10.603,6.921-10.603c2.651,0,3.976,2.062,3.976,6.479v26.213
		h10.604v-2.355c-3.24-0.147-4.271-1.179-4.271-3.683V51.002c0-5.153,3.02-9.277,6.775-9.277c2.576,0,4.123,1.473,4.123,5.891
		v26.802h10.75v-2.355c-3.387-0.147-4.418-1.179-4.418-3.683V48.867c0-7.511-3.461-10.53-8.762-10.53
		c-4.713,0-7.438,2.946-9.205,6.774c-1.252-3.977-3.828-6.774-8.173-6.774c-4.271,0-7.069,2.726-8.615,6.48h-0.147v-6.038
		l-10.751,0.442v2.355c3.977,0.147,4.86,0.663,4.86,3.829v22.973c0,2.209-1.178,3.535-4.712,3.683v2.355H149.059z"/>
</g>
<polygon fill="#CB043E" points="0.919,0.181 0.919,101.905 25.589,101.905 25.589,54.488 42.516,101.905 79.971,0.181 73.932,0.181 
	52.306,58.63 30.776,0.181 "/>
<polygon fill="#CB043E" points="103.752,0.181 93.621,0.181 55.995,101.905 61.986,101.905 79.131,54.488 79.131,101.905 
	103.752,101.905 "/>
<polygon fill="#CB043E" points="89.81,0.181 83.819,0.181 46.193,101.905 52.184,101.905 "/>
</svg>
